HIERARCHY
ROOT hip
{
  OFFSET 0 0 0
  CHANNELS 6 Xposition Yposition Zposition Zrotation Yrotation Xrotation
  JOINT abdomen
  {
    OFFSET 0 20.6881 -0.73152
    CHANNELS 3 Zrotation Xrotation Yrotation
    JOINT chest
    {
      OFFSET 0 11.7043 -0.48768
      CHANNELS 3 Zrotation Xrotation Yrotation
      JOINT neck
      {
        OFFSET 0 22.1894 -2.19456
        CHANNELS 3 Zrotation Xrotation Yrotation
        JOINT head
        {
          OFFSET -0.24384 7.07133 1.2192
          CHANNELS 3 Zrotation Xrotation Yrotation
          JOINT leftEye
          {
            OFFSET 4.14528 8.04674 8.04672
            CHANNELS 3 Zrotation Xrotation Yrotation
            End Site
            {
              OFFSET 1 0 0
            }
          }
          JOINT rightEye
          {
            OFFSET -3.6576 8.04674 8.04672
            CHANNELS 3 Zrotation Xrotation Yrotation
            End Site
            {
              OFFSET 1 0 0
            }
          }
        }
      }
      JOINT rCollar
      {
        OFFSET -2.68224 19.2634 -4.8768
        CHANNELS 3 Zrotation Xrotation Yrotation
        JOINT rShldr
        {
          OFFSET -8.77824 -1.95073 1.46304
          CHANNELS 3 Zrotation Xrotation Yrotation
          JOINT rForeArm
          {
            OFFSET -28.1742 -1.7115 0.48768
            CHANNELS 3 Zrotation Xrotation Yrotation
            JOINT rHand
            {
              OFFSET -22.5879 0.773209 7.07136
              CHANNELS 3 Zrotation Xrotation Yrotation
              JOINT rThumb1
              {
                OFFSET -1.2192 -0.487915 3.41376
                CHANNELS 3 Zrotation Xrotation Yrotation
                JOINT rThumb2
                {
                  OFFSET -3.37035 -0.52449 3.41376
                  CHANNELS 3 Zrotation Xrotation Yrotation
                  End Site
                  {
                    OFFSET -1.78271 -1.18214 1.43049
                  }
                }
              }
              JOINT rIndex1
              {
                OFFSET -7.75947 0.938293 5.60832
                CHANNELS 3 Zrotation Xrotation Yrotation
                JOINT rIndex2
                {
                  OFFSET -2.54057 -0.884171 1.56538
                  CHANNELS 3 Zrotation Xrotation Yrotation
                  End Site
                  {
                    OFFSET -1.62519 -0.234802 1.16502
                  }
                }
              }
              JOINT rMid1
              {
                OFFSET -8.24714 1.18213 3.41376
                CHANNELS 3 Zrotation Xrotation Yrotation
                JOINT rMid2
                {
                  OFFSET -3.10165 -0.590103 1.0647
                  CHANNELS 3 Zrotation Xrotation Yrotation
                  End Site
                  {
                    OFFSET -2.48547 -0.328903 0.83742
                  }
                }
              }
              JOINT rRing1
              {
                OFFSET -8.82822 0.546677 1.51678
                CHANNELS 3 Zrotation Xrotation Yrotation
                JOINT rRing2
                {
                  OFFSET -2.60934 -0.819778 -0.0198488
                  CHANNELS 3 Zrotation Xrotation Yrotation
                  End Site
                  {
                    OFFSET -2.33842 -0.294052 0.168128
                  }
                }
              }
              JOINT rPinky1
              {
                OFFSET -8.27202 -0.0477905 -0.4584
                CHANNELS 3 Zrotation Xrotation Yrotation
                JOINT rPinky2
                {
                  OFFSET -1.82734 -0.647385 -0.700984
                  CHANNELS 3 Zrotation Xrotation Yrotation
                  End Site
                  {
                    OFFSET -1.69225 -0.51767 -0.607171
                  }
                }
              }
            }
          }
        }
      }
      JOINT lCollar
      {
        OFFSET 2.68224 19.2634 -4.8768
        CHANNELS 3 Zrotation Xrotation Yrotation
        JOINT lShldr
        {
          OFFSET 8.77824 -1.95073 1.46304
          CHANNELS 3 Zrotation Xrotation Yrotation
          JOINT lForeArm
          {
            OFFSET 28.1742 -1.7115 0.48768
            CHANNELS 3 Zrotation Xrotation Yrotation
            JOINT lHand
            {
              OFFSET 22.5879 0.773209 7.07136
              CHANNELS 3 Zrotation Xrotation Yrotation
              JOINT lThumb1
              {
                OFFSET 1.2192 -0.487915 3.41376
                CHANNELS 3 Zrotation Xrotation Yrotation
                JOINT lThumb2
                {
                  OFFSET 3.37035 -0.52449 3.41376
                  CHANNELS 3 Zrotation Xrotation Yrotation
                  End Site
                  {
                    OFFSET 1.78271 -1.18214 1.43049
                  }
                }
              }
              JOINT lIndex1
              {
                OFFSET 7.75947 0.938293 5.60832
                CHANNELS 3 Zrotation Xrotation Yrotation
                JOINT lIndex2
                {
                  OFFSET 2.54057 -0.884171 1.56538
                  CHANNELS 3 Zrotation Xrotation Yrotation
                  End Site
                  {
                    OFFSET 1.62519 -0.234802 1.16502
                  }
                }
              }
              JOINT lMid1
              {
                OFFSET 8.24714 1.18213 3.41376
                CHANNELS 3 Zrotation Xrotation Yrotation
                JOINT lMid2
                {
                  OFFSET 3.10165 -0.590103 1.0647
                  CHANNELS 3 Zrotation Xrotation Yrotation
                  End Site
                  {
                    OFFSET 2.48547 -0.328903 0.83742
                  }
                }
              }
              JOINT lRing1
              {
                OFFSET 8.82822 0.546677 1.51678
                CHANNELS 3 Zrotation Xrotation Yrotation
                JOINT lRing2
                {
                  OFFSET 2.60934 -0.819778 -0.0198488
                  CHANNELS 3 Zrotation Xrotation Yrotation
                  End Site
                  {
                    OFFSET 2.33842 -0.294052 0.168128
                  }
                }
              }
              JOINT lPinky1
              {
                OFFSET 8.27202 -0.0477905 -0.4584
                CHANNELS 3 Zrotation Xrotation Yrotation
                JOINT lPinky2
                {
                  OFFSET 1.82734 -0.647385 -0.700984
                  CHANNELS 3 Zrotation Xrotation Yrotation
                  End Site
                  {
                    OFFSET 1.69225 -0.51767 -0.607171
                  }
                }
              }
            }
          }
        }
      }
    }
  }
  JOINT rButtock
  {
    OFFSET -8.77824 4.35084 1.2192
    CHANNELS 3 Zrotation Xrotation Yrotation
    JOINT rThigh
    {
      OFFSET 0 -1.70687 -2.19456
      CHANNELS 3 Zrotation Xrotation Yrotation
      JOINT rShin
      {
        OFFSET 0 -36.8199 0.73152
        CHANNELS 3 Zrotation Xrotation Yrotation
        JOINT rFoot
        {
          OFFSET 0.73152 -45.1104 -5.12064
          CHANNELS 3 Zrotation Xrotation Yrotation
          End Site
          {
            OFFSET -1.1221 -3.69964 12.103
          }
        }
      }
    }
  }
  JOINT lButtock
  {
    OFFSET 8.77824 4.35084 1.2192
    CHANNELS 3 Zrotation Xrotation Yrotation
    JOINT lThigh
    {
      OFFSET 0 -1.70687 -2.19456
      CHANNELS 3 Zrotation Xrotation Yrotation
      JOINT lShin
      {
        OFFSET 0 -36.8199 0.73152
        CHANNELS 3 Zrotation Xrotation Yrotation
        JOINT lFoot
        {
          OFFSET -0.73152 -45.1104 -5.12064
          CHANNELS 3 Zrotation Xrotation Yrotation
          End Site
          {
            OFFSET 1.1221 -3.69964 12.103
          }
        }
      }
    }
  }
}
MOTION
Frames:	7
Frame Time:	0.03333
0.0 0.0 0.0 0.0 0.0 0.0 0.0 0.0 0.0 0.0 0.0 0.0 0.0 0.0 0.0 0.0 0.0 0.0 0.0 0.0 0.0 0.0 0.0 0.0 0.0 0.0 0.0 0.0 0.0 0.0 0.0 0.0 0.0 0.0 0.0 0.0 0.0 0.0 0.0 0.0 0.0 0.0 0.0 0.0 0.0 0.0 0.0 0.0 0.0 0.0 0.0 0.0 0.0 0.0 0.0 0.0 0.0 0.0 0.0 0.0 0.0 0.0 0.0 0.0 0.0 0.0 0.0 0.0 0.0 0.0 0.0 0.0 0.0 0.0 0.0 0.0 0.0 0.0 0.0 0.0 0.0 0.0 0.0 0.0 0.0 0.0 0.0 0.0 0.0 0.0 0.0 0.0 0.0 0.0 0.0 0.0 0.0 0.0 0.0 0.0 0.0 0.0 0.0 0.0 0.0 0.0 0.0 0.0 0.0 0.0 0.0 0.0 0.0 0.0 0.0 0.0 0.0 0.0 0.0 0.0 0.0 0.0 0.0 0.0 0.0 0.0 0.0 0.0 0.0 0.0 0.0 0.0
0.5756 45.8634 202.989 -16.882415 -25.370111 16.550541 8.36243 2.771716 78.548973 -5.021016 -5.582194 -73.338811 -9.858964 21.6635 -74.217385 35.740058 8.497625 91.631353 0.000102 0.0 0.002246 -0.000241 -0.0 0.002826 4.01611 -38.183785 -7.355325 -84.089848 -29.233334 -96.321562 -179.319688 -3.855479 -73.196521 -13.065921 -29.669833 -7.598248 -174.700282 -12.359202 89.84026 -103.426068 14.838999 43.95254 -144.840605 -5.401224 118.433664 92.023575 -70.24586 40.405091 19.458987 -54.511244 -1.073942 10.060814 -21.434713 -1.464944 -0.002327 -0.224918 -0.070669 -72.044999 78.836453 85.446223 -145.263269 12.34271 -141.898098 -19.958376 -35.540327 -21.613948 138.581845 46.203362 -142.753792 -137.599127 19.956096 152.69286 -175.320469 -14.311044 -127.562997 -110.105259 -58.659315 -113.685702 2.935627 2.873438 -0.5229 -57.465749 -73.416005 6.94874 9.921451 14.214839 -6.399353 155.79617 -2.881593 -109.722148 167.692545 -28.996037 -145.303884 -0.854402 6.460392 -1.332292 0.003326 3.236626 -1.016487 156.831087 -37.050807 -176.254026 156.091391 52.626512 149.979286 149.933069 16.837452 143.098704 179.990246 75.748256 0.006122 98.780428 75.483954 156.892812 43.753673 2.248525 93.541235 -157.408852 20.391006 -138.901033 0.022772 0.00051 0.016233 99.631702 -54.013995 33.944297 -92.148058 28.718714 -21.134568 -0.206476 85.300189 78.325926
0.5785 45.8651 202.99200000000002 -16.830144 -25.395347 16.53055 8.260577 2.292057 90.793031 -5.614743 -4.455836 -85.538319 -9.893081 22.418809 -78.418779 35.923995 10.827326 95.157502 -0.001076 0.0 -0.000921 0.004263 -0.0 -0.000975 0.045594 -0.272189 -0.060782 71.423463 17.107751 -39.973984 -0.908289 9.475516 109.460487 -11.498101 -37.550008 -9.319332 4.987789 -4.972533 -0.553449 -76.94491 28.384262 68.873892 -152.470469 -19.234622 121.474102 -153.162393 1.060479 118.464436 -154.573137 10.560138 139.720274 -166.845525 -15.767296 143.780478 0.002307 0.248452 0.078177 -154.843345 6.584163 170.982553 -10.523461 -21.4075 -9.968677 -69.669998 -54.930144 -69.867072 -4.148984 -41.42215 7.981476 93.604389 12.57164 -128.051002 -8.607704 22.263336 50.778267 -101.399063 -60.040767 -105.216287 -161.60047 -32.611946 -83.841703 160.108531 3.409256 -96.453567 23.850736 28.051408 -17.147412 162.175348 -9.696735 -110.800265 121.167052 52.384832 -111.106099 81.768766 64.124112 -73.988413 -0.006628 1.338883 -0.419477 51.897961 78.065462 -65.055808 132.362944 -18.31613 129.885563 146.713371 10.98953 141.722521 -179.999987 75.749254 -1.2e-05 104.61699 75.801332 -127.472684 5.419482 -41.94885 -36.382587 59.775748 39.183651 -176.405609 -0.008264 -0.000289 -0.007546 100.92147 -56.075209 -173.243052 88.180748 -0.93471 -162.157576 125.429851 36.130157 -51.905603
0.5832 45.868900000000004 202.99800000000002 -16.76206 -25.423464 16.50331 8.153657 2.306352 91.899641 -5.692287 -4.366138 -86.606813 -8.251181 17.0677 -46.781561 31.38058 -6.408051 67.840037 0.003906 -0.0 -0.002308 0.003906 -0.0 -0.002308 -159.067653 -40.779434 168.931626 -63.203417 17.352109 14.490548 -1.150275 -27.505535 -143.767149 -155.6565 18.404211 136.210909 -163.653845 -1.331556 89.457438 -5.11046 -46.940447 11.129316 -8.385947 12.27013 5.322225 -31.599153 39.871309 22.166849 -2.307279 6.461952 1.367233 13.815094 -31.841277 -1.317135 -145.075034 -2.872741 -178.224993 10.754442 66.922254 0.32433 -160.515678 67.510344 -151.118391 -133.763732 -21.479409 -130.086561 159.129507 -53.899346 -171.773825 37.573239 -62.199263 100.780858 172.928665 33.089922 167.982101 37.393295 80.67733 -39.576226 -29.267042 -27.561687 -2.847566 -5.377972 -43.90636 29.413945 26.442005 29.963908 -19.284015 153.628449 3.296403 -109.588136 172.72304 -43.29818 -145.000737 174.24028 -36.071584 -143.309583 145.109816 -0.773351 178.884387 -12.071377 32.52654 5.317074 -12.398184 42.003548 -10.377594 156.046136 39.908858 148.386479 -0.002473 0.001035 -0.002395 -13.494456 12.429131 -7.332629 -9.147309 38.980902 -103.207251 171.504636 -73.533954 -95.018801 -0.002154 0.001035 -0.002147 100.770244 -56.094769 -173.895422 90.993085 0.318691 171.990135 129.584489 -57.221505 -133.793666
0.5891000000000001 45.8714 203.003 -16.690906 -25.450249 16.477123 8.074984 2.393126 90.589819 -5.662793 -4.509322 -85.275727 11.338183 24.830407 114.907952 -31.665703 17.320616 -92.091462 0.003091 -0.0 -0.003182 -0.002932 0.0 -0.001965 -156.56298 -70.319409 177.699543 127.603153 24.154714 -167.670878 -5.273851 -2.122273 108.566454 -10.504027 -42.781748 -10.400539 11.472316 -11.452054 -0.624598 12.512216 -30.971951 -19.200615 -145.763259 -7.006218 118.880401 -136.951836 30.079838 109.339893 5.852744 -18.219889 -2.532154 -155.979065 15.748611 139.857795 -145.121825 0.787188 -179.375055 -152.93363 -21.977087 -175.921724 -131.647364 -19.516559 -129.195043 -5.992305 -18.762077 -9.290836 142.174603 40.832789 -146.539954 -110.097671 48.852176 133.163887 9.526242 53.018889 -24.963022 19.109773 73.279857 -23.479354 -156.192013 -36.100945 -81.40631 86.795112 24.79771 -32.776695 12.250907 16.998558 -8.086551 169.004153 -21.246015 -109.711566 -9.747471 -30.573488 3.234534 166.694734 -15.034809 -144.104235 145.113729 -0.40027 179.002711 157.268688 38.00894 -176.462502 0.759979 -1.945252 0.703454 134.136322 -20.847362 132.180555 179.999085 75.749724 0.000808 101.577534 77.441316 -6.12096 -30.153328 8.362766 106.270772 -43.801084 27.266221 -38.855775 179.998229 75.748658 0.001919 -144.881581 -17.67119 92.034437 90.09634 -9.38478 -15.277825 -5.330405 -42.382964 -97.811749
0.5911 45.8731 203.003 -16.661365 -25.463505 16.483801 8.033553 2.248955 94.107736 -5.775966 -4.167789 -88.773504 -8.852521 18.065563 -53.082266 33.04654 -3.115141 73.451903 0.000343 -0.0 -0.003499 0.000343 -0.0 -0.003499 2.757975 -21.122155 -4.209358 -49.364657 -34.612926 -91.874371 175.309895 28.510031 -68.550726 -14.265887 -23.905793 -6.264015 176.121919 -21.041174 88.547329 19.314957 -68.97446 12.596589 4.593602 -7.808258 -2.375746 -168.671026 -24.806502 109.172345 -5.228572 13.848177 3.309167 20.671927 -47.617665 1.000595 0.001874 0.128772 0.040836 -142.185822 57.973593 156.405038 -67.224373 -51.75857 -65.772771 -11.902471 -29.118966 -14.477223 148.58434 26.530576 -153.488397 61.920072 -32.116031 56.987469 0.842122 5.672887 47.858752 -67.440264 -58.947713 -72.138066 6.490604 6.259601 -1.342676 -22.407241 -29.886908 10.293061 -11.823696 -21.054173 5.022278 -33.077878 -27.240477 0.550773 19.624452 38.41847 -14.908528 160.395789 3.39047 -142.25384 145.122117 0.656304 179.332396 -12.022734 35.66033 4.96263 146.496355 16.363338 142.981203 -11.421779 26.775578 -4.113002 179.996881 75.750549 0.002777 101.640616 77.404224 -5.405398 -40.093695 13.430347 -140.016678 -60.162045 19.261742 -160.093324 179.998337 75.750549 0.001644 -144.380402 -16.687756 35.176089 87.189552 47.818174 -21.973909 -121.033013 44.862315 35.784196
0.5882000000000001 45.8762 202.99900000000002 -16.675145 -25.458703 16.51686 8.067188 2.90904 78.14081 -5.062116 -5.689095 -72.813647 -6.227138 14.724308 -29.794462 25.542153 -14.243743 51.882735 0.004451 -0.0 -0.005144 -0.000906 -0.0 0.001731 1.508699 -10.195463 -2.131024 -71.785795 -34.806669 -115.399593 -170.321878 23.557633 -75.714105 -11.24171 -38.766774 -9.570594 -176.463419 -14.081052 89.703931 115.327303 -64.901043 86.66149 84.85983 -75.134697 36.560244 -70.927994 53.882895 59.062341 -169.868993 -35.537449 145.363757 -10.330497 31.048685 8.421907 -145.123321 1.152773 -179.488931 10.349509 2.589619 -8.676308 1.412551 3.811926 1.298945 -151.219947 25.032464 -146.490178 -2.958472 -23.212194 4.592958 126.727272 -2.756566 -117.361152 172.176592 17.231912 167.674224 29.556294 78.562545 -32.411862 176.955287 -14.557896 -89.654882 -14.598187 -63.740901 -12.880273 88.30074 41.501588 -74.079405 154.456778 6.54704 -112.706685 1.949566 5.495282 -1.143789 0.250258 9.920556 -1.599841 145.122312 1.77375 179.685725 152.245459 -26.610669 175.020769 151.354152 34.024181 146.958079 -5.703457 10.290675 -0.912962 179.987531 75.751128 0.007748 101.256068 77.405207 0.523586 -30.70657 15.439346 138.694458 -110.571098 -63.31541 171.12475 179.962939 75.749197 0.029578 -143.897566 -18.752103 169.638881 104.348663 -73.477157 167.210581 133.570656 -32.206432 -136.29226
